<?xml version="1.0" encoding="utf-8"?>
<!-- Generator: Adobe Illustrator 16.0.0, SVG Export Plug-In . SVG Version: 6.00 Build 0)  -->
<!DOCTYPE svg PUBLIC "-//W3C//DTD SVG 1.1//EN" "http://www.w3.org/Graphics/SVG/1.1/DTD/svg11.dtd">
<svg version="1.1" id="Capa_1" xmlns="http://www.w3.org/2000/svg" xmlns:xlink="http://www.w3.org/1999/xlink" x="0px" y="0px"
	 width="595.276px" height="595.276px" viewBox="0 0 595.276 595.276" enable-background="new 0 0 595.276 595.276"
	 xml:space="preserve">
<g>
	<path fill="#00AFAA" d="M549.142,249.723c-2.895-5.891-6.648-10.934-11.271-15.129c-4.626-4.184-9.881-7.35-15.771-9.475
		c-5.909-2.162-11.742-3.219-17.539-3.219h-65.008c-3.872,0-7.607,0.412-11.25,1.156v-19.51c0-7.752-1.451-14.533-4.343-20.453
		c-2.906-5.891-6.667-10.938-11.264-15.121c-4.63-4.188-9.881-7.363-15.769-9.482c-5.897-2.154-11.767-3.232-17.56-3.232h-64.998
		c-6.871,0-13.358,1.189-19.479,3.541c-6.092,2.367-11.415,5.748-15.919,10.143c-4.515,4.412-8.11,9.699-10.786,15.934
		c-2.676,6.215-4.023,13.168-4.023,20.912v56.625c0,3.359,0.208,6.66,0.503,9.953h-47.232c-4.317,0-8.459,0.518-12.464,1.447
		c-0.722-3.709-1.828-7.172-3.383-10.357c-2.902-5.889-6.656-10.92-11.264-15.111c-4.623-4.199-9.874-7.363-15.771-9.498
		c-5.898-2.154-11.752-3.217-17.542-3.217H91.999c-6.882,0-13.358,1.191-19.471,3.533c-6.109,2.363-11.418,5.74-15.94,10.145
		c-4.49,4.398-8.096,9.715-10.765,15.922c-2.676,6.229-4.02,13.186-4.02,20.926v56.625c0,7.535,0.736,14.855,2.231,22.061
		c1.512,7.195,4.199,13.625,8.063,19.297c3.865,5.691,9.012,10.297,15.438,13.857c6.437,3.516,14.604,5.297,24.464,5.297h57.286
		c7.54,0,14.26-0.59,20.19-1.709c1.512,7.18,4.191,13.623,8.06,19.305c3.854,5.68,9.001,10.287,15.434,13.832
		c6.437,3.527,14.597,5.299,24.464,5.299h57.29c9.859,0,18.343-0.955,25.412-2.869c7.087-1.938,12.934-5.371,17.564-10.316
		c4.605-4.939,8.042-11.592,10.291-19.957c2.238-8.346,3.362-18.982,3.362-31.848v-52.1h40.311c6.516,0,12.374-0.467,17.689-1.311
		v7.428c0,7.518,0.744,14.865,2.249,22.049c1.501,7.188,4.192,13.635,8.053,19.314c3.861,5.672,9.008,10.291,15.427,13.832
		c6.461,3.535,14.611,5.316,24.471,5.316h57.293c9.853,0,18.347-0.975,25.416-2.896c7.083-1.941,12.923-5.377,17.553-10.289
		c4.604-4.947,8.042-11.602,10.291-19.975c2.259-8.344,3.369-18.979,3.369-31.854V270.17
		C553.474,262.424,552.012,255.639,549.142,249.723z M166.343,318.977v25.746c0,5.592-2.837,10.193-8.538,13.832
		c-5.675,3.646-12.388,5.48-20.104,5.48h-29.615c-2.773,0-5.801-0.275-9.019-0.807c-3.208-0.525-6.225-1.617-9.004-3.219
		c-2.78-1.617-5.09-3.807-6.918-6.602c-1.814-2.773-2.723-6.326-2.723-10.629v-51.484c0-2.988,0.736-5.561,2.249-7.723
		c1.491-2.123,3.376-3.854,5.632-5.158c2.249-1.268,4.763-2.184,7.557-2.723c2.784-0.545,5.589-0.805,8.383-0.805H139.3
		c3.226,0,6.448,0.312,9.659,0.967c3.215,0.65,6.121,1.662,8.692,3.057c2.583,1.404,4.666,3.104,6.286,5.129
		c1.598,2.061,2.406,4.363,2.406,6.936V318.977z M291.766,355.707v25.746c0,5.596-2.834,10.211-8.513,13.857
		c-5.679,3.639-12.403,5.459-20.132,5.459h-29.6c-2.791,0-5.79-0.273-9.026-0.809c-3.211-0.518-6.21-1.609-8.994-3.217
		c-2.787-1.604-5.1-3.814-6.917-6.604c-1.814-2.775-2.73-6.316-2.73-10.621v-37.326c0.018-1.311,0.083-2.557,0.083-3.91v-10.928
		c0.119-2.689,0.769-5.074,2.173-7.043c1.487-2.137,3.365-3.846,5.621-5.168c2.263-1.271,4.773-2.166,7.554-2.709
		c2.801-0.557,5.585-0.809,8.39-0.809h35.067c3.214,0,6.433,0.299,9.647,0.979c3.218,0.625,6.121,1.652,8.699,3.049
		c2.568,1.387,4.655,3.092,6.264,5.129c1.627,2.062,2.414,4.357,2.414,6.932V355.707z M388.716,238.609v25.746
		c0,5.586-2.83,10.205-8.545,13.848c-5.679,3.645-12.381,5.469-20.1,5.469h-29.604c-2.802,0-5.801-0.258-9.012-0.818
		c-3.226-0.514-6.235-1.594-9.016-3.207c-2.787-1.605-5.093-3.811-6.925-6.605c-1.818-2.777-2.737-6.322-2.737-10.629v-51.488
		c0-2.975,0.754-5.568,2.263-7.709c1.501-2.129,3.38-3.85,5.628-5.172c2.252-1.271,4.773-2.17,7.561-2.707
		c2.787-0.547,5.585-0.812,8.376-0.812h35.06c3.215,0,6.455,0.305,9.669,0.977c3.211,0.625,6.11,1.645,8.685,3.047
		c2.568,1.4,4.677,3.104,6.271,5.139c1.613,2.055,2.424,4.35,2.424,6.936V238.609z M513.892,305.23v25.738
		c0,5.594-2.841,10.213-8.523,13.855c-5.686,3.652-12.392,5.467-20.118,5.467H455.64c-2.78,0-5.783-0.256-9.008-0.816
		c-3.229-0.51-6.221-1.592-9.008-3.211c-2.791-1.602-5.101-3.807-6.911-6.598c-1.843-2.77-2.737-6.322-2.737-10.621v-51.496
		c0-2.975,0.733-5.564,2.23-7.705c1.512-2.129,3.402-3.861,5.65-5.158c2.263-1.293,4.77-2.184,7.546-2.729
		c2.798-0.547,5.6-0.805,8.395-0.805h35.063c3.204,0,6.433,0.301,9.651,0.969c3.215,0.643,6.121,1.652,8.71,3.053
		c2.546,1.408,4.647,3.104,6.257,5.133c1.631,2.059,2.414,4.354,2.414,6.936V305.23z"/>
	<path fill="#00AFAA" d="M142.13,203.086c0,9.568-7.755,17.32-17.327,17.32c-9.561,0-17.312-7.752-17.312-17.32
		c0-9.561,7.751-17.32,17.312-17.32C134.375,185.766,142.13,193.525,142.13,203.086z"/>
	<path fill="#00AFAA" d="M488.533,420.826c0,9.572-7.762,17.324-17.331,17.324c-9.558,0-17.32-7.752-17.32-17.324
		c0-9.564,7.762-17.32,17.32-17.32C480.771,403.506,488.533,411.262,488.533,420.826z"/>
</g>
<rect x="0.291" y="0.293" fill="none" width="594.695" height="594.691"/>
</svg>
